PathFileType	4	(X/Y/Z)	Kaydara																																																																																																																									
DataRate	CameraRate	NumFrames	NumMarkers	Units	OrigDataRate	OrigDataStartFrame	OrigNumFrames																																																																																																																					
30	30	9	41	mm	30	145	230																																																																																																																					
Frame#	Time	PAIB_LFHD			PAIB_RFHD			PAIB_LBHD			PAIB_RBHD			PAIB_LFTShould			PAIB_RFTShould			PAIB_LRRShould			PAIB_RRRShould			PAIB_T10			PAIB_STRN			PAIB_TRUN			PAIB_LSHO			PAIB_LUPA			PAIB_LELB			PAIB_LFRM			PAIB_LWRA			PAIB_LWRB			PAIB_LFIN			PAIB_RSHO			PAIB_RUPA			PAIB_RELB			PAIB_RFRM			PAIB_RWRA			PAIB_RWRB			PAIB_RFIN			PAIB_LFWT			PAIB_RFWT			PAIB_LBWT			PAIB_RBWT			PAIB_LTHI			PAIB_LKNE			PAIB_LSHN			PAIB_LANK			PAIB_LHEE			PAIB_LTOE			PAIB_RTHI			PAIB_RKNE			PAIB_RSHN			PAIB_RANK			PAIB_RHEE			PAIB_RTOE		
		X1	Y1	Z1	X2	Y2	Z2	X3	Y3	Z3	X4	Y4	Z4	X5	Y5	Z5	X6	Y6	Z6	X7	Y7	Z7	X8	Y8	Z8	X9	Y9	Z9	X10	Y10	Z10	X11	Y11	Z11	X12	Y12	Z12	X13	Y13	Z13	X14	Y14	Z14	X15	Y15	Z15	X16	Y16	Z16	X17	Y17	Z17	X18	Y18	Z18	X19	Y19	Z19	X20	Y20	Z20	X21	Y21	Z21	X22	Y22	Z22	X23	Y23	Z23	X24	Y24	Z24	X25	Y25	Z25	X26	Y26	Z26	X27	Y27	Z27	X28	Y28	Z28	X29	Y29	Z29	X30	Y30	Z30	X31	Y31	Z31	X32	Y32	Z32	X33	Y33	Z33	X34	Y34	Z34	X35	Y35	Z35	X36	Y36	Z36	X37	Y37	Z37	X38	Y38	Z38	X39	Y39	Z39	X40	Y40	Z40	X41	Y41	Z41
																																																																																																																												
144	4.787	231.62123	1670.62866	-893.44582	46.87449	1667.70233	-903.14926	246.32477	1642.03217	-1018.84529	43.51394	1650.45029	-1017.76009	211.67439	1406.51321	-904.53117	89.69203	1397.99728	-909.01619	222.24136	1472.27783	-1049.88098	67.61638	1463.92502	-1044.18716	150.20842	1310.25925	-1131.95869	160.03109	1336.29562	-869.48975	163.29845	1233.8031	-851.07399	342.66472	1422.72552	-980.12741	408.64063	1199.09203	-999.89616	429.03008	1119.02191	-1045.29343	452.78488	1003.99826	-1006.52542	398.26187	885.00572	-922.22458	438.58994	870.17822	-990.27145	450.52986	832.93839	-927.66243	-38.74954	1395.65247	-967.44019	-101.9311	1223.69362	-1017.07451	-123.36366	1106.91345	-1028.82957	-140.66641	970.60555	-998.06305	-81.82924	867.71866	-897.42859	-148.63807	852.50099	-947.62794	-141.28563	818.38905	-881.30814	271.26955	942.44247	-905.75462	38.51532	958.22258	-894.86412	203.09065	989.44084	-1122.31659	58.29733	999.87228	-1114.30885	248.20366	700.29724	-1088.62091	309.20786	476.56105	-971.69495	268.40057	327.28569	-1105.08568	263.68837	282.17045	-1307.30606	209.60115	321.22097	-1338.76709	234.23676	109.13143	-1277.20497	4.83954	691.0688	-1044.69238	21.51074	474.40628	-905.91652	91.43349	292.7228	-880.00229	65.94394	89.54409	-958.22441	126.54266	97.84866	-1014.80415	93.09422	66.70238	-793.12225
145	4.82	230.60665	1676.2912	-856.34369	45.82756	1672.70416	-865.22217	244.83431	1648.04153	-981.87988	41.94634	1655.78339	-979.83765	212.08385	1412.42325	-869.39529	89.94203	1404.24835	-871.70494	220.01299	1477.34497	-1014.61082	65.75773	1469.79462	-1006.76376	146.26656	1315.85983	-1096.09741	161.14252	1342.37473	-833.78525	163.8171	1239.93286	-814.81468	342.36687	1428.06534	-948.56705	408.10585	1204.58496	-973.28995	426.20804	1124.93858	-1020.67375	450.46867	1009.04945	-984.20029	397.94994	889.8011	-898.07327	435.34184	875.00641	-968.39256	449.26392	837.0433	-906.59805	-39.07857	1402.11304	-927.93076	-104.03978	1229.48685	-969.45412	-127.11918	1112.53334	-976.51657	-144.55322	978.04214	-938.92372	-83.44316	878.97095	-835.70786	-152.02925	862.4646	-882.80594	-142.78765	831.30798	-815.44815	267.07678	949.88571	-867.45918	33.52899	961.82022	-859.06586	201.81385	995.35728	-1084.36691	57.17307	1006.16219	-1077.73964	246.8819	703.70903	-1035.08789	311.48401	489.44744	-892.23434	270.07608	334.9707	-1017.76474	259.3103	281.77944	-1218.13843	203.20103	317.35123	-1250.18593	236.48495	112.45618	-1172.68883	2.564	697.87216	-1025.80124	18.039	473.48045	-898.81874	89.00408	291.56906	-876.90659	65.34087	89.37914	-955.86723	125.7477	98.65065	-1014.8909	92.05339	66.28459	-793.4169
146	4.853	230.50949	1680.3598	-819.02626	45.72239	1676.49597	-827.59529	244.36981	1652.71805	-944.69856	41.48856	1660.16663	-942.06123	212.79816	1417.15988	-834.59801	90.67634	1409.83276	-834.51973	218.31259	1481.58447	-979.51096	64.46253	1474.95956	-969.18213	142.57576	1320.40833	-1059.78127	162.04554	1347.70538	-797.65656	164.4445	1245.30708	-778.35304	342.0974	1432.70676	-916.20903	406.1694	1209.37035	-945.77156	422.01809	1130.02182	-994.56398	447.08992	1013.57506	-960.11986	397.70794	893.67569	-873.06511	431.73958	879.38866	-944.97566	448.33302	840.82024	-884.15604	-39.1238	1408.74817	-888.4906	-105.32279	1235.46097	-923.50975	-129.38428	1118.54721	-926.05057	-146.86359	985.80467	-881.80519	-84.79472	891.78337	-774.08928	-153.88684	873.22716	-819.8941	-144.33307	845.53864	-751.04668	262.5382	956.12534	-829.02016	28.21922	964.10751	-823.40881	201.58445	998.94211	-1047.88673	56.79245	1010.59052	-1041.52344	249.94213	705.74181	-985.91324	312.4296	503.75389	-819.68765	270.02199	337.63229	-929.32907	255.18242	265.45319	-1123.60237	198.02059	296.29128	-1158.5701	235.3624	105.70104	-1055.1754	2.75036	705.65582	-1005.80849	15.17996	473.10204	-895.82726	85.20709	291.20436	-875.10536	65.47905	89.40009	-957.30255	126.70305	99.09574	-1014.46907	90.96395	65.92074	-793.82744
147	4.887	231.32212	1681.59775	-781.39984	46.37078	1677.81082	-789.72565	244.80143	1654.71786	-907.2776	41.83157	1662.14752	-904.25079	213.57161	1419.44489	-799.2392	91.72346	1412.83081	-796.87775	216.82438	1483.26584	-944.05968	63.3719	1477.54761	-931.53427	138.62505	1322.38724	-1022.80685	163.28999	1350.38132	-761.2709	165.20388	1248.00781	-741.56967	341.6444	1434.60693	-882.82921	404.08005	1211.46057	-916.08574	418.03825	1132.49565	-966.22749	443.8522	1015.63942	-933.62564	397.146	894.77974	-846.31783	428.37303	881.27754	-919.15398	447.15908	842.09381	-859.431	-39.00052	1413.24646	-848.10066	-106.60513	1239.75632	-878.29041	-131.71829	1122.92595	-877.40524	-148.40544	991.93428	-826.23009	-85.4069	904.44191	-713.1662	-154.0099	882.63077	-758.30551	-144.84768	859.04922	-688.05962	258.01378	959.36584	-792.33864	23.49417	963.45634	-787.74635	201.01168	999.71359	-1010.52391	56.17429	1011.51848	-1005.41473	255.80883	706.84975	-937.22542	311.02938	516.27724	-753.51433	268.44988	335.34943	-841.04568	251.831	236.28916	-1022.95479	194.18915	260.64854	-1062.18399	234.80862	93.55005	-927.31102	4.79236	711.37436	-985.85876	13.44808	472.50767	-894.99496	83.43466	290.75571	-874.03603	66.19428	89.87549	-958.55286	128.28463	99.40243	-1014.03999	90.05105	65.58438	-793.84827
148	4.92	232.69032	1679.35791	-743.46275	47.81804	1676.36398	-751.18004	245.6889	1653.12515	-869.56291	42.77225	1661.34155	-865.85281	214.48561	1417.78488	-762.98752	92.65024	1412.11304	-758.48618	215.59551	1481.57898	-907.74315	62.53242	1476.86905	-892.61932	134.88582	1321.07437	-984.66202	164.73185	1349.05792	-724.33037	165.77103	1246.68663	-704.50928	341.20899	1432.36618	-848.45413	402.35008	1209.50417	-884.48013	415	1130.87379	-935.53253	441.30848	1013.68301	-904.3573	396.05225	892.77458	-816.43661	425.66219	879.26163	-890.56534	445.90916	839.51759	-831.69777	-38.92541	1414.28314	-807.31956	-108.41901	1240.89012	-833.18741	-134.47943	1124.17419	-829.36722	-149.545	995.30197	-771.27701	-84.50142	915.01678	-654.05807	-152.95868	889.57321	-697.53845	-143.59062	870.45013	-626.07918	255.3133	959.74594	-754.74388	20.62024	959.09988	-751.1834	200.72676	998.84277	-972.76146	55.80628	1009.81689	-968.83575	261.04435	707.78427	-889.84245	307.50408	525.22289	-693.91342	266.16232	329.11598	-753.67867	249.79301	198.7821	-914.50104	191.33219	214.17994	-957.73972	236.55729	80.03218	-792.24854	7.09498	715.24033	-963.53279	13.37538	471.67519	-888.6174	83.43177	289.93357	-871.26038	67.58164	90.17233	-958.25226	129.45051	100.59821	-1013.92052	88.83287	64.79604	-793.1102
149	4.953	234.72963	1674.0007	-705.30159	49.82161	1672.18842	-711.96709	246.86186	1647.73438	-831.47484	43.97624	1657.34314	-826.59149	215.20653	1412.36984	-725.36919	93.43845	1407.54166	-719.28665	214.70428	1476.37146	-870.5043	61.88617	1472.67776	-852.90161	131.7322	1316.60416	-946.37077	165.3739	1343.8205	-686.2149	166.26579	1241.40854	-666.6951	340.49625	1425.77454	-812.93915	400.84553	1203.26874	-851.05087	412.76085	1125.01991	-902.70561	439.32072	1007.69249	-872.41547	394.8737	886.38161	-784.57947	423.85399	873.46344	-859.17709	444.44988	833.19038	-800.64911	-38.57124	1411.30356	-766.1779	-110.53016	1238.58635	-787.98546	-137.67539	1122.19597	-781.25603	-150.24921	995.71426	-716.37306	-81.8972	922.2245	-596.93764	-150.90213	893.71323	-637.60284	-140.09667	878.77251	-565.46013	254.14343	955.76607	-716.88217	19.31101	951.6964	-712.90245	200.98797	995.7003	-934.25301	55.96176	1006.24329	-930.39627	263.08447	706.32675	-845.97488	302.07895	528.56339	-642.72766	263.03612	321.12339	-668.41507	249.29564	159.94498	-797.77634	189.54348	163.93612	-841.74774	242.94838	72.25169	-652.36343	7.36346	716.74042	-938.05283	14.3309	469.58824	-877.99423	84.86116	287.80565	-865.45639	69.69241	90.73789	-957.86964	132.23208	101.77394	-1012.19849	88.85887	63.73707	-792.3127
150	4.987	237.37131	1666.90277	-666.51016	52.2319	1666.43311	-671.99059	248.14753	1640.32074	-792.64923	45.55661	1651.43478	-786.43456	216.21063	1404.51233	-686.30356	94.23707	1400.49103	-679.05174	214.40884	1468.70834	-832.12456	61.68521	1466.03287	-812.70065	129.56681	1309.785	-907.19391	166.20792	1336.24237	-646.93367	166.72859	1233.78731	-627.62905	340.25444	1416.25702	-776.21048	399.24286	1193.78799	-815.63164	410.74272	1115.96588	-867.68143	437.67941	998.53653	-838.13744	393.98819	877.05124	-750.36156	422.12307	863.97774	-825.06432	443.48591	823.94295	-767.03934	-37.81408	1404.84665	-724.78546	-112.14231	1233.18329	-742.7784	-140.5534	1117.34596	-733.10028	-150.59289	993.33305	-662.63702	-77.83324	925.46364	-542.43736	-148.17199	895.02357	-579.5628	-134.84797	883.5659	-507.10987	254.82267	948.68546	-678.39684	20.65212	943.10272	-674.11858	201.3431	990.60066	-894.8513	56.27842	1001.40182	-890.83992	261.65802	700.76233	-807.21153	295.72779	524.15272	-601.90559	261.88309	315.20935	-586.93108	251.88463	128.53473	-674.86481	191.13523	121.52082	-717.54997	251.17214	74.61017	-512.75261	6.81984	715.83092	-908.70621	15.33187	466.5501	-859.76303	85.85101	284.61298	-855.79887	71.03424	91.36902	-955.8831	133.61795	104.10812	-1009.96605	89.37358	63.06003	-791.59508
151	5.02	240.05171	1658.77335	-626.57116	54.99448	1659.38263	-631.05598	250.10475	1631.77917	-752.73766	47.58792	1644.00513	-745.50117	217.65343	1395.75104	-645.89371	95.5387	1392.38419	-637.63111	214.96771	1460.01572	-791.95572	62.22323	1458.3107	-771.10298	128.62543	1302.0018	-866.67557	167.51781	1327.77603	-606.13686	167.71469	1225.34256	-586.93745	340.44991	1405.802	-737.71805	397.90375	1183.46115	-778.22556	408.6631	1105.71335	-830.26093	436.14998	988.35739	-801.63033	393.81397	866.42654	-713.95004	421.04492	853.86993	-789.01222	443.21247	813.70338	-731.31721	-36.51587	1396.8924	-682.87895	-112.31445	1226.17142	-697.76382	-141.87342	1110.9037	-685.0972	-149.84903	989.00894	-610.72121	-72.73936	924.91043	-490.95943	-144.56804	893.20816	-524.80339	-128.83644	884.49188	-452.40799	256.53225	940.44403	-638.21022	22.72395	934.29466	-633.65532	202.30515	983.62572	-854.17755	57.14375	994.41704	-849.89677	256.54058	692.30995	-772.80067	289.9007	510.91602	-568.88538	262.45083	314.24936	-512.09526	257.15775	113.00784	-553.76808	196.83674	96.57618	-594.41753	255.6563	89.64373	-381.61598	7.10102	713.5392	-875.35957	16.69582	462.79758	-836.47713	87.58686	280.88968	-843.18939	72.08398	92.99766	-952.99728	134.80928	108.01163	-1006.70052	89.88984	62.41197	-790.46852
152	5.053	243.15643	1650.16144	-585.53261	58.03144	1651.53381	-589.39892	252.61497	1622.42569	-711.62605	50.20085	1635.60135	-703.69034	219.47676	1386.6626	-604.1074	97.38358	1383.70911	-595.35873	216.35363	1451.1615	-750.12001	63.67269	1450.19989	-728.71712	129.06729	1293.75061	-824.85786	169.28526	1318.853	-564.31499	169.17244	1216.46149	-545.20935	341.96335	1396.29883	-696.82724	397.25998	1173.45055	-738.0101	406.90323	1095.83618	-790.44868	435.04715	978.47099	-762.86873	394.51614	856.00021	-675.08926	420.22602	843.9196	-750.72769	443.50246	803.47023	-693.6927	-34.51553	1388.71185	-640.07065	-110.77138	1218.73245	-652.92366	-141.22452	1103.90167	-638.34747	-147.57547	983.09212	-561.66267	-67.38938	921.04065	-442.63069	-140.29637	888.82385	-474.24957	-122.80263	881.38992	-402.12864	257.93808	931.36292	-595.50262	24.03053	925.29968	-591.79844	204.04417	974.72519	-811.49254	58.81636	986.05385	-807.64603	253.40675	681.35544	-738.03299	286.90554	494.39754	-538.63914	259.89647	319.1511	-447.96047	257.80563	113.71452	-451.09718	197.75084	88.87986	-488.52093	254.71861	121.2267	-274.58895	8.9649	711.64055	-839.89578	18.60697	459.98917	-810.83572	88.08621	278.13173	-829.89532	73.13448	96.79747	-950.09186	136.57779	114.51667	-1002.22939	90.13744	62.09144	-789.86458
